<?xml version="1.0" encoding="utf-8"?>
<!-- Generator: Adobe Illustrator 16.0.0, SVG Export Plug-In . SVG Version: 6.00 Build 0)  -->
<!DOCTYPE svg PUBLIC "-//W3C//DTD SVG 1.1//EN" "http://www.w3.org/Graphics/SVG/1.1/DTD/svg11.dtd">
<svg version="1.1" id="Layer_1" xmlns="http://www.w3.org/2000/svg" xmlns:xlink="http://www.w3.org/1999/xlink" x="0px" y="0px"
	 width="166.25px" height="141.75px" viewBox="0 0 166.25 141.75" enable-background="new 0 0 166.25 141.75" xml:space="preserve">
<g>
	<defs>
		<rect id="SVGID_1_" width="166.25" height="141.75"/>
	</defs>
	<clipPath id="SVGID_2_">
		<use xlink:href="#SVGID_1_"  overflow="visible"/>
	</clipPath>
	<path clip-path="url(#SVGID_2_)" fill-rule="evenodd" clip-rule="evenodd" fill="#066DA5" d="M157.321,57.202
		c-3.438-2.3-11.338-3.143-17.417-1.997c-0.783-5.726-3.975-10.691-9.779-15.179l-3.337-2.225l-2.228,3.34
		c-2.851,4.299-4.274,10.256-3.808,15.967c0.21,2.01,0.87,5.603,2.938,8.764c-2.066,1.11-6.15,2.64-11.533,2.537H8.622l-0.203,1.192
		c-0.973,5.74-0.952,23.653,10.678,37.42c8.84,10.464,22.094,15.771,39.392,15.771c37.5,0,65.245-17.263,78.237-48.641
		c5.109,0.102,16.109,0.029,21.761-10.766c0.146-0.248,0.485-0.896,1.473-2.942l0.541-1.122L157.321,57.202z M75.663,31.199h15.742
		V16.887H75.663V31.199z M75.663,48.373h15.742V34.062H75.663V48.373z M57.058,48.373h15.743V34.062H57.058V48.373z M38.453,48.373
		h15.743V34.062H38.453V48.373z M19.848,65.546h15.743V51.234H19.848V65.546z M38.453,65.546h15.743V51.234H38.453V65.546z
		 M57.058,65.546h15.743V51.234H57.058V65.546z M75.663,65.546h15.742V51.234H75.663V65.546z M94.268,65.546h15.743V51.234H94.268
		V65.546z"/>
</g>
<g>
	<defs>
		<rect id="SVGID_3_" width="166.25" height="141.75"/>
	</defs>
	<clipPath id="SVGID_4_">
		<use xlink:href="#SVGID_3_"  overflow="visible"/>
	</clipPath>
	<path clip-path="url(#SVGID_4_)" fill="#006EA5" d="M106.451,117.592c0,1.116-0.875,1.991-2.015,1.991
		c-1.127,0-2.026-0.875-2.026-1.991c0-1.091,0.899-1.967,2.026-1.967C105.576,115.625,106.451,116.501,106.451,117.592
		 M102.913,117.592c0,0.876,0.648,1.571,1.535,1.571c0.864,0,1.499-0.695,1.499-1.559c0-0.876-0.635-1.583-1.511-1.583
		C103.562,116.021,102.913,116.729,102.913,117.592 M104.125,118.624h-0.456v-1.967c0.18-0.036,0.432-0.061,0.756-0.061
		c0.372,0,0.539,0.061,0.684,0.145c0.107,0.083,0.191,0.239,0.191,0.432c0,0.216-0.168,0.384-0.407,0.455v0.024
		c0.191,0.072,0.3,0.216,0.359,0.479c0.061,0.3,0.096,0.42,0.145,0.492h-0.492c-0.06-0.072-0.096-0.252-0.156-0.48
		c-0.035-0.216-0.155-0.312-0.407-0.312h-0.216V118.624z M104.137,117.509h0.216c0.252,0,0.456-0.084,0.456-0.288
		c0-0.18-0.132-0.3-0.42-0.3c-0.12,0-0.204,0.012-0.252,0.023V117.509z"/>
</g>
</svg>
