<svg enable-background="new 0 0 401 401" height="401" viewBox="0 0 401 401" width="401" xmlns="http://www.w3.org/2000/svg" xmlns:xlink="http://www.w3.org/1999/xlink"><pattern id="a" height="400" overflow="visible" patternUnits="userSpaceOnUse" viewBox="0 -400 400 400" width="400" x="-1365.082" y="-342"><path d="m0-400h400v400h-400z" fill="none"/><path d="m104.167-250.043-5.106-15.719 13.371-9.715 13.371 9.715-5.107 15.719z" fill="none" stroke="#fff" stroke-miterlimit="10" stroke-width="4"/><path d="m297.771-119.477-5.106-15.718 13.371-9.715 13.371 9.715-5.106 15.718z" fill="none" stroke="#fff" stroke-miterlimit="10" stroke-width="4"/><path d="m176.748-342.981-4.545-7.873 4.545-7.873h9.091l4.546 7.873-4.546 7.873z" fill="none" stroke="#fff" stroke-miterlimit="10" stroke-width="4"/><path d="m101.044-381.727 16.25 8.5" fill="none" stroke="#fff" stroke-miterlimit="10" stroke-width="4"/><path d="m54.294-344.534c0 1.519-1.231 2.75-2.75 2.75s-2.75-1.231-2.75-2.75 1.231-2.75 2.75-2.75 2.75 1.231 2.75 2.75z" fill="none" stroke="#fff" stroke-miterlimit="10"/><path d="m218.068-223.05c0 1.519-1.231 2.75-2.75 2.75s-2.75-1.231-2.75-2.75 1.231-2.75 2.75-2.75 2.75 1.232 2.75 2.75z" fill="none" stroke="#fff" stroke-miterlimit="10"/><path d="m273.459-73.227c0 1.519-1.231 2.75-2.75 2.75s-2.75-1.231-2.75-2.75 1.231-2.75 2.75-2.75 2.75 1.232 2.75 2.75z" fill="none" stroke="#fff" stroke-miterlimit="10"/><path d="m104.561-37.727c0 1.519-1.231 2.75-2.75 2.75s-2.75-1.231-2.75-2.75 1.231-2.75 2.75-2.75 2.75 1.232 2.75 2.75z" fill="none" stroke="#fff" stroke-miterlimit="10"/><path d="m270.709-286.477c0 1.519-1.231 2.75-2.75 2.75s-2.75-1.231-2.75-2.75 1.231-2.75 2.75-2.75 2.75 1.232 2.75 2.75z" fill="none" stroke="#fff" stroke-miterlimit="10"/><path d="m359.294-194.727c0 1.519-1.231 2.75-2.75 2.75s-2.75-1.231-2.75-2.75 1.231-2.75 2.75-2.75 2.75 1.232 2.75 2.75z" fill="none" stroke="#fff" stroke-miterlimit="10"/><path d="m23.095-262.263c4.236-6.642 2.289-15.441-4.352-19.678" fill="none" stroke="#fff" stroke-miterlimit="10" stroke-width="4"/><path d="m267.959-201.698c-13.426-1.277-25.32 8.554-26.598 21.979" fill="none" stroke="#fff" stroke-miterlimit="10" stroke-width="4"/><path d="m212.932-18.008c-8.377-10.569-23.706-12.339-34.275-3.962" fill="none" stroke="#fff" stroke-miterlimit="10" stroke-width="4"/><path d="m284.58-374.73 8.085 4.844-6.902 2.352-6.904 2.351-1.182-7.195-1.183-7.196z" fill="none" stroke="#fff" stroke-miterlimit="10" stroke-width="4"/><path d="m116.584-183.513 5.661 2.434-4.266 2.125-4.268 2.127-1.394-4.559-1.394-4.559z" fill="none" stroke="#fff" stroke-miterlimit="10" stroke-width="4"/><path d="m30.578-35.862 6.231 8.512-8.138-.578-8.145-.575 1.911-7.935 1.91-7.936z" fill="none" stroke="#fff" stroke-miterlimit="10" stroke-width="4"/><path d="m380.794-369.477c0 5.938-4.812 10.75-10.75 10.75s-10.75-4.812-10.75-10.75 4.812-10.75 10.75-10.75 10.75 4.813 10.75 10.75z" fill="none" stroke="#fff" stroke-miterlimit="10" stroke-width="4"/><path d="m196.237-119.45c0 5.938-4.812 10.75-10.75 10.75s-10.75-4.812-10.75-10.75 4.812-10.75 10.75-10.75 10.75 4.812 10.75 10.75z" fill="none" stroke="#fff" stroke-miterlimit="10" stroke-width="4"/><path d="m340.795-264.894h-15v-15h15z" fill="none" stroke="#fff" stroke-miterlimit="10" stroke-width="4"/><path d="m43.794-197.477-7 22.75" fill="none" stroke="#fff" stroke-miterlimit="10" stroke-width="4"/><path d="m368.388-48.227h-12.797v12.798h-12.797v12.797" fill="none" stroke="#fff" stroke-miterlimit="10" stroke-width="4"/><path d="m79.585-101.41 3.476-5.544-5.544-3.476 3.474-5.544-5.544-3.476" fill="none" stroke="#fff" stroke-miterlimit="10" stroke-width="4"/><path d="m199.625-265.687 3.476-5.543-5.544-3.476 3.474-5.544-5.544-3.477" fill="none" stroke="#fff" stroke-miterlimit="10" stroke-width="4"/></pattern><path d="m.5.5h400v400h-400z" fill="url(#a)" opacity=".25"/></svg>